<svg width="24" height="26" viewBox="0 0 24 26" fill="none" xmlns="http://www.w3.org/2000/svg">
<path fill-rule="evenodd" clip-rule="evenodd" d="M3.37493 4.50752C5.62487 2.08589 8.581 0.875011 11.5339 0.875C14.4868 0.874989 17.4429 2.08589 19.6928 4.50752C24.1928 9.35078 24.1927 17.2185 19.6928 22.0617C15.1929 26.905 7.87483 26.905 3.37493 22.0617C-1.12498 17.2185 -1.12497 9.35077 3.37493 4.50752ZM18.9474 5.30103C16.8978 3.09503 14.2162 1.99472 11.5339 1.99473C8.85154 1.99474 6.16997 3.09503 4.12037 5.30103C0.0211723 9.71302 0.0211702 16.8563 4.12037 21.2682C8.21958 25.6803 14.8482 25.6802 18.9474 21.2682C23.0466 16.8563 23.0466 9.71302 18.9474 5.30103ZM11.5339 4.61332C11.3963 4.61344 11.2616 4.61473 11.1243 4.62214C11.1052 4.62101 11.0861 4.62101 11.067 4.62214C10.8796 4.64258 10.7167 4.76905 10.6395 4.95389C10.5623 5.13873 10.5826 5.35385 10.6927 5.51821C10.8029 5.68257 10.9861 5.77119 11.1735 5.75069C13.0957 5.64702 15.0425 6.35298 16.5063 7.92843C17.9701 9.50391 18.626 11.5992 18.5296 13.6682C18.5161 13.9798 18.7398 14.2443 19.0293 14.2589C19.3189 14.2735 19.5646 14.0327 19.5782 13.7211C19.6884 11.3563 18.934 8.93677 17.2517 7.12611C15.6746 5.42863 13.5973 4.6115 11.5339 4.61332ZM8.78147 10.3178C9.54029 9.50106 10.5354 9.09225 11.5339 9.09225C12.5324 9.09225 13.5275 9.50106 14.2863 10.3178C15.804 11.9512 15.804 14.6181 14.2863 16.2515C12.7687 17.8849 10.2991 17.8849 8.78147 16.2515C7.26382 14.6181 7.26382 11.9512 8.78147 10.3178ZM11.5339 10.212C12.2619 10.212 12.9906 10.519 13.5491 11.1201C14.666 12.3223 14.666 14.2558 13.5491 15.458C12.4321 16.6602 10.6357 16.6602 9.51872 15.458C8.40178 14.2558 8.40177 12.3223 9.51872 11.1201C10.0772 10.519 10.8059 10.212 11.5339 10.212ZM3.48141 12.8394C3.49349 12.5513 3.70546 12.3193 3.97291 12.3016C4.12342 12.2911 4.27083 12.3509 4.37747 12.4657C4.48412 12.5805 4.53968 12.7391 4.52995 12.9011C4.43354 14.9699 5.0896 17.0654 6.55331 18.6408C8.01718 20.2163 9.96398 20.9223 11.8861 20.8186C12.0734 20.8075 12.252 20.9049 12.3545 21.074C12.4571 21.2431 12.468 21.4582 12.3832 21.6383C12.2984 21.8184 12.1308 21.9361 11.9435 21.9471C9.74648 22.0657 7.49843 21.245 5.81605 19.4343C4.13382 17.6238 3.37121 15.2041 3.48141 12.8394Z" fill="white"/>
<path d="M3.37493 4.50752L3.26504 4.40542L3.26504 4.40542L3.37493 4.50752ZM19.6928 4.50752L19.583 4.60962L19.583 4.60962L19.6928 4.50752ZM19.6928 22.0617L19.8027 22.1638L19.8027 22.1638L19.6928 22.0617ZM3.37493 22.0617L3.48482 21.9596L3.48482 21.9596L3.37493 22.0617ZM18.9474 5.30103L19.0573 5.19893L19.0573 5.19893L18.9474 5.30103ZM4.12037 5.30103L4.23026 5.40313L4.23026 5.40313L4.12037 5.30103ZM4.12037 21.2682L4.23026 21.1661L4.23026 21.1661L4.12037 21.2682ZM18.9474 21.2682L18.8375 21.1661L18.8375 21.1661L18.9474 21.2682ZM11.1243 4.62214L11.1155 4.77188L11.1239 4.77237L11.1324 4.77192L11.1243 4.62214ZM11.5339 4.61332L11.534 4.76332L11.534 4.76332L11.5339 4.61332ZM11.067 4.62214L11.0581 4.47221L11.0507 4.47302L11.067 4.62214ZM10.6395 4.95389L10.5011 4.89608L10.5011 4.89608L10.6395 4.95389ZM10.6927 5.51821L10.8173 5.43471L10.8173 5.43471L10.6927 5.51821ZM11.1735 5.75069L11.1654 5.60068L11.1571 5.60158L11.1735 5.75069ZM16.5063 7.92843L16.6162 7.82633L16.6162 7.82633L16.5063 7.92843ZM18.5296 13.6682L18.3798 13.6612L18.3798 13.6616L18.5296 13.6682ZM19.5782 13.7211L19.4283 13.7141L19.4283 13.7145L19.5782 13.7211ZM17.2517 7.12611L17.3616 7.02401L17.3616 7.02401L17.2517 7.12611ZM11.5339 9.09225L11.5339 8.94225L11.5339 9.09225ZM8.78147 10.3178L8.67158 10.2157L8.67158 10.2157L8.78147 10.3178ZM14.2863 10.3178L14.1764 10.4199L14.1764 10.4199L14.2863 10.3178ZM14.2863 16.2515L14.1764 16.1494L14.1764 16.1494L14.2863 16.2515ZM8.78147 16.2515L8.89136 16.1494L8.89136 16.1494L8.78147 16.2515ZM13.5491 11.1201L13.6589 11.018L13.6589 11.018L13.5491 11.1201ZM11.5339 10.212L11.5339 10.062L11.5339 10.212ZM13.5491 15.458L13.4392 15.3559L13.4392 15.3559L13.5491 15.458ZM9.51872 15.458L9.62861 15.3559L9.62861 15.3559L9.51872 15.458ZM9.51872 11.1201L9.40883 11.018L9.40883 11.018L9.51872 11.1201ZM3.97291 12.3016L3.98285 12.4512L3.98332 12.4512L3.97291 12.3016ZM3.48141 12.8394L3.63125 12.8464L3.63128 12.8457L3.48141 12.8394ZM4.37747 12.4657L4.48736 12.3636L4.48736 12.3636L4.37747 12.4657ZM4.52995 12.9011L4.38021 12.8921L4.38011 12.8941L4.52995 12.9011ZM6.55331 18.6408L6.44342 18.7429L6.44342 18.7429L6.55331 18.6408ZM11.8861 20.8186L11.8942 20.9684L11.895 20.9683L11.8861 20.8186ZM11.9435 21.9471L11.9515 22.0969L11.9523 22.0969L11.9435 21.9471ZM5.81605 19.4343L5.70616 19.5364L5.70616 19.5364L5.81605 19.4343ZM11.5339 0.725C8.53933 0.725011 5.54338 1.95323 3.26504 4.40542L3.48482 4.60962C5.70636 2.21856 8.62267 1.02501 11.5339 1.025L11.5339 0.725ZM19.8027 4.40542C17.5244 1.95322 14.5284 0.724989 11.5339 0.725L11.5339 1.025C14.4451 1.02499 17.3614 2.21855 19.583 4.60962L19.8027 4.40542ZM19.8027 22.1638C24.3561 17.263 24.3561 9.30625 19.8027 4.40542L19.583 4.60962C24.0294 9.39532 24.0294 17.1739 19.583 21.9596L19.8027 22.1638ZM3.26504 22.1638C7.82428 27.071 15.2435 27.0709 19.8027 22.1638L19.583 21.9596C15.1424 26.739 7.92538 26.739 3.48482 21.9596L3.26504 22.1638ZM3.26504 4.40542C-1.28834 9.30624 -1.28835 17.263 3.26504 22.1638L3.48482 21.9596C-0.961609 17.174 -0.961601 9.39531 3.48482 4.60962L3.26504 4.40542ZM11.5339 2.14473C14.1744 2.14472 16.8162 3.2276 18.8375 5.40313L19.0573 5.19893C16.9794 2.96247 14.258 1.84472 11.5339 1.84473L11.5339 2.14473ZM4.23026 5.40313C6.25156 3.2276 8.89335 2.14474 11.5339 2.14473L11.5339 1.84473C8.80974 1.84474 6.08839 2.96247 4.01048 5.19893L4.23026 5.40313ZM4.23026 21.1661C0.18454 16.8117 0.184542 9.75756 4.23026 5.40313L4.01048 5.19893C-0.142198 9.66848 -0.1422 16.9008 4.01048 21.3703L4.23026 21.1661ZM18.8375 21.1661C14.7977 25.5143 8.27013 25.5143 4.23026 21.1661L4.01048 21.3703C8.16903 25.8462 14.8988 25.8462 19.0573 21.3703L18.8375 21.1661ZM18.8375 5.40313C22.8832 9.75756 22.8832 16.8117 18.8375 21.1661L19.0573 21.3703C23.21 16.9008 23.21 9.66848 19.0573 5.19893L18.8375 5.40313ZM11.1324 4.77192C11.2656 4.76473 11.3971 4.76344 11.534 4.76332L11.5338 4.46332C11.3956 4.46344 11.2577 4.46473 11.1162 4.47235L11.1324 4.77192ZM11.0758 4.77188C11.089 4.7711 11.1023 4.7711 11.1155 4.77188L11.1331 4.4724C11.1082 4.47092 11.0831 4.47092 11.0581 4.4724L11.0758 4.77188ZM10.7779 5.01169C10.8357 4.87334 10.9543 4.78532 11.0832 4.77125L11.0507 4.47302C10.805 4.49984 10.5977 4.66476 10.5011 4.89608L10.7779 5.01169ZM10.8173 5.43471C10.7356 5.31277 10.7198 5.15079 10.7779 5.01169L10.5011 4.89608C10.4048 5.12666 10.4296 5.39493 10.5681 5.60172L10.8173 5.43471ZM11.1571 5.60158C11.0287 5.61563 10.8983 5.55557 10.8173 5.43471L10.5681 5.60171C10.7074 5.80958 10.9435 5.92675 11.1898 5.89979L11.1571 5.60158ZM16.6162 7.82633C15.121 6.21715 13.1305 5.49492 11.1654 5.6009L11.1815 5.90047C13.0609 5.79911 14.9639 6.48881 16.3964 8.03053L16.6162 7.82633ZM18.6795 13.6751C18.7775 11.5708 18.1105 9.43467 16.6162 7.82633L16.3964 8.03053C17.8296 9.57315 18.4745 11.6277 18.3798 13.6612L18.6795 13.6751ZM19.0369 14.1091C18.8397 14.0991 18.669 13.9144 18.6795 13.6747L18.3798 13.6616C18.3631 14.0452 18.6398 14.3894 19.0218 14.4087L19.0369 14.1091ZM19.4283 13.7145C19.4179 13.9536 19.233 14.119 19.0369 14.1091L19.0218 14.4087C19.4047 14.428 19.7113 14.1118 19.728 13.7276L19.4283 13.7145ZM17.1418 7.2282C18.7936 9.00598 19.5369 11.3848 19.4283 13.7141L19.728 13.728C19.8399 11.3279 19.0745 8.86755 17.3616 7.02401L17.1418 7.2282ZM11.534 4.76332C13.5573 4.76154 15.5941 5.5624 17.1418 7.22821L17.3616 7.02401C15.755 5.29485 13.6374 4.46147 11.5338 4.46332L11.534 4.76332ZM11.5339 8.94225C10.4936 8.94225 9.45875 9.36844 8.67158 10.2157L8.89136 10.4199C9.62183 9.63368 10.5771 9.24225 11.5339 9.24225L11.5339 8.94225ZM14.3962 10.2157C13.609 9.36844 12.5742 8.94225 11.5339 8.94225L11.5339 9.24225C12.4907 9.24225 13.4459 9.63367 14.1764 10.4199L14.3962 10.2157ZM14.3962 16.3536C15.9673 14.6626 15.9673 11.9067 14.3962 10.2157L14.1764 10.4199C15.6406 11.9958 15.6406 14.5735 14.1764 16.1494L14.3962 16.3536ZM8.67158 16.3536C10.2486 18.0509 12.8192 18.0509 14.3962 16.3536L14.1764 16.1494C12.7181 17.719 10.3497 17.719 8.89136 16.1494L8.67158 16.3536ZM8.67158 10.2157C7.10045 11.9067 7.10045 14.6626 8.67158 16.3536L8.89136 16.1494C7.42719 14.5735 7.42719 11.9958 8.89136 10.4199L8.67158 10.2157ZM13.6589 11.018C13.073 10.3873 12.3048 10.062 11.5339 10.062L11.5339 10.362C12.2189 10.362 12.9082 10.6507 13.4392 11.2222L13.6589 11.018ZM13.6589 15.5601C14.8294 14.3004 14.8294 12.2778 13.6589 11.018L13.4392 11.2222C14.5026 12.3668 14.5026 14.2113 13.4392 15.3559L13.6589 15.5601ZM9.40883 15.5601C10.5851 16.8261 12.4827 16.8261 13.6589 15.5601L13.4392 15.3559C12.3816 16.4942 10.6862 16.4942 9.62861 15.3559L9.40883 15.5601ZM9.40883 11.018C8.2384 12.2778 8.23841 14.3004 9.40883 15.5601L9.62861 15.3559C8.56515 14.2113 8.56514 12.3668 9.62861 11.2222L9.40883 11.018ZM11.5339 10.062C10.7629 10.062 9.99481 10.3873 9.40883 11.018L9.62861 11.2222C10.1596 10.6507 10.8489 10.362 11.5339 10.362L11.5339 10.062ZM3.96298 12.1519C3.6105 12.1753 3.34645 12.4774 3.33154 12.8331L3.63128 12.8457C3.64052 12.6251 3.80043 12.4633 3.98285 12.4512L3.96298 12.1519ZM4.48736 12.3636C4.35124 12.2171 4.16021 12.1382 3.96251 12.1519L3.98332 12.4512C4.08663 12.444 4.19042 12.4847 4.26758 12.5678L4.48736 12.3636ZM4.67968 12.9101C4.69176 12.7088 4.62301 12.5096 4.48736 12.3636L4.26758 12.5678C4.34522 12.6513 4.38759 12.7694 4.38022 12.8921L4.67968 12.9101ZM6.6632 18.5387C5.23002 16.9962 4.58503 14.9415 4.67979 12.9081L4.38011 12.8941C4.28205 14.9984 4.94919 17.1347 6.44342 18.7429L6.6632 18.5387ZM11.878 20.6688C9.99881 20.7702 8.09573 20.0805 6.6632 18.5387L6.44342 18.7429C7.93863 20.3522 9.92915 21.0744 11.8942 20.9684L11.878 20.6688ZM12.4828 20.9962C12.3534 20.7828 12.1237 20.6543 11.8773 20.6688L11.895 20.9683C12.0231 20.9608 12.1506 21.027 12.2263 21.1518L12.4828 20.9962ZM12.5189 21.7022C12.625 21.4769 12.6116 21.2086 12.4828 20.9962L12.2263 21.1518C12.3025 21.2775 12.311 21.4394 12.2475 21.5744L12.5189 21.7022ZM11.9523 22.0969C12.1984 22.0824 12.4125 21.9282 12.5189 21.7022L12.2475 21.5744C12.1843 21.7086 12.0631 21.7898 11.9347 21.7974L11.9523 22.0969ZM5.70616 19.5364C7.41964 21.3806 9.71129 22.2178 11.9515 22.0969L11.9354 21.7973C9.78167 21.9136 7.57722 21.1095 5.92594 19.3322L5.70616 19.5364ZM3.33157 12.8324C3.21971 15.2329 3.99361 17.6932 5.70616 19.5364L5.92594 19.3322C4.27404 17.5543 3.52272 15.1753 3.63125 12.8464L3.33157 12.8324Z" fill="white"/>
</svg>
