<svg width="25" height="24" viewBox="0 0 25 24" fill="none" xmlns="http://www.w3.org/2000/svg">
<path fill-rule="evenodd" clip-rule="evenodd" d="M11.9775 0.694336C8.80069 0.694336 5.62607 2.08891 3.20329 4.88704C3.13173 4.96844 3.10294 5.08808 3.12777 5.20088C3.1526 5.31368 3.22727 5.40249 3.32366 5.43385C3.42004 5.46521 3.52348 5.43435 3.595 5.3529C8.22688 0.00340676 15.7282 0.00340676 20.3601 5.3529C20.4316 5.43435 20.535 5.46521 20.6314 5.43385C20.7278 5.40249 20.8025 5.31368 20.8273 5.20088C20.8521 5.08808 20.8233 4.96844 20.7518 4.88704C18.329 2.08891 15.1544 0.694336 11.9775 0.694336ZM11.9775 3.70215C9.68345 3.70215 7.38984 4.70995 5.64059 6.73022C5.56903 6.81161 5.54024 6.93125 5.56507 7.04405C5.5899 7.15685 5.66457 7.24566 5.76095 7.27702C5.85733 7.30838 5.96077 7.27752 6.03229 7.19607C9.31714 3.40231 14.6379 3.40231 17.9228 7.19607C17.9943 7.27752 18.0977 7.30838 18.1941 7.27702C18.2905 7.24566 18.3652 7.15685 18.39 7.04405C18.4148 6.93125 18.386 6.81161 18.3145 6.73022C16.5652 4.70995 14.2716 3.70215 11.9775 3.70215ZM8.17361 8.69491C9.22216 7.48391 10.6018 6.872 11.9775 6.872C13.3532 6.872 14.7329 7.48391 15.7814 8.69491C15.8514 8.77812 15.878 8.89847 15.851 9.0106C15.8241 9.12274 15.7477 9.20962 15.6508 9.23851C15.5538 9.26739 15.451 9.2339 15.381 9.15064C13.4976 6.97541 10.4575 6.97541 8.57402 9.15064C8.50406 9.2339 8.40123 9.26739 8.30428 9.23851C8.20732 9.20962 8.13099 9.12274 8.10404 9.0106C8.07708 8.89847 8.10361 8.77812 8.17361 8.69491ZM11.9775 9.20128C11.6759 9.20128 11.4291 9.49081 11.4291 9.8393C11.4291 10.0696 11.5395 10.2659 11.699 10.376V15.46H2.0891C0.938632 15.46 0 16.5419 0 17.8804V20.6249C0 21.9634 0.938632 23.0554 2.0891 23.0554H21.866C23.0164 23.0554 23.9551 21.9634 23.9551 20.6249V17.8804C23.9551 16.5419 23.0164 15.46 21.866 15.46H12.2561V10.376C12.4156 10.2659 12.5259 10.0696 12.5259 9.8393C12.5259 9.49081 12.2792 9.20128 11.9775 9.20128ZM23.398 17.8804C23.398 16.8898 22.7174 16.1081 21.8659 16.1081H2.0891C1.23762 16.1081 0.557094 16.8898 0.557094 17.8804V20.6249C0.557094 21.6156 1.23762 22.4073 2.0891 22.4073H21.8659C22.7174 22.4073 23.398 21.6156 23.398 20.6249V17.8804ZM3.89095 17.8703C3.23439 17.8703 2.68972 18.4993 2.68972 19.2577C2.68972 20.0162 3.23439 20.6451 3.89095 20.6451C4.54751 20.6451 5.08348 20.0162 5.08348 19.2577C5.08348 18.4993 4.54751 17.8703 3.89095 17.8703ZM4.52639 19.2577C4.52639 18.8483 4.24537 18.5285 3.89096 18.5285C3.53655 18.5285 3.25552 18.8483 3.25552 19.2577C3.25552 19.6671 3.53655 19.997 3.89096 19.997C4.24537 19.997 4.52639 19.6671 4.52639 19.2577Z" fill="white"/>
<path d="M3.20329 4.88704L3.46616 5.11814L3.46789 5.11615L3.20329 4.88704ZM3.12777 5.20088L3.46959 5.12564L3.46959 5.12564L3.12777 5.20088ZM3.32366 5.43385L3.21536 5.76667L3.21537 5.76667L3.32366 5.43385ZM3.595 5.3529L3.858 5.58385L3.85959 5.582L3.595 5.3529ZM20.3601 5.3529L20.0954 5.58201L20.0971 5.58384L20.3601 5.3529ZM20.6314 5.43385L20.5231 5.10102L20.5231 5.10102L20.6314 5.43385ZM20.8273 5.20088L21.1691 5.27612L21.1691 5.27612L20.8273 5.20088ZM20.7518 4.88704L20.4872 5.11615L20.4889 5.11813L20.7518 4.88704ZM5.64059 6.73022L5.90346 6.96131L5.90518 6.95932L5.64059 6.73022ZM5.56507 7.04405L5.22325 7.11929L5.22325 7.11929L5.56507 7.04405ZM5.76095 7.27702L5.86924 6.94419L5.86924 6.94419L5.76095 7.27702ZM6.03229 7.19607L6.2953 7.42702L6.29689 7.42517L6.03229 7.19607ZM17.9228 7.19607L17.6582 7.42518L17.6598 7.42701L17.9228 7.19607ZM18.1941 7.27702L18.0858 6.94419L18.0858 6.94419L18.1941 7.27702ZM18.39 7.04405L18.7318 7.1193L18.7318 7.11929L18.39 7.04405ZM18.3145 6.73022L18.0499 6.95932L18.0516 6.96131L18.3145 6.73022ZM8.17361 8.69491L7.90899 8.46579L7.90579 8.46959L8.17361 8.69491ZM15.7814 8.69491L16.0493 8.46957L16.046 8.46581L15.7814 8.69491ZM15.851 9.0106L16.1913 9.0924L16.1913 9.0924L15.851 9.0106ZM15.381 9.15064L15.649 8.92544L15.6456 8.92154L15.381 9.15064ZM8.57402 9.15064L8.3094 8.92151L8.30607 8.92547L8.57402 9.15064ZM8.10404 9.0106L7.76373 9.0924L7.76373 9.0924L8.10404 9.0106ZM11.699 10.376H12.049V10.1924L11.8979 10.0881L11.699 10.376ZM11.699 15.46V15.81H12.049V15.46H11.699ZM12.2561 15.46H11.9061V15.81H12.2561V15.46ZM12.2561 10.376L12.0572 10.0881L11.9061 10.1924V10.376H12.2561ZM3.46789 5.11615C5.82717 2.39135 8.90673 1.04434 11.9775 1.04434V0.344336C8.69465 0.344336 5.42496 1.78648 2.93869 4.65794L3.46789 5.11615ZM3.46959 5.12564C3.46876 5.12187 3.46885 5.11749 3.46967 5.11407C3.47052 5.11054 3.47095 5.11268 3.46616 5.11813L2.94043 4.65596C2.7898 4.82729 2.739 5.06282 2.78595 5.27612L3.46959 5.12564ZM3.43195 5.10102C3.45158 5.10741 3.46246 5.11753 3.46677 5.12265C3.47099 5.12768 3.4704 5.12934 3.46959 5.12564L2.78595 5.27612C2.83301 5.48988 2.98254 5.69092 3.21536 5.76667L3.43195 5.10102ZM3.332 5.12196C3.33721 5.11603 3.34893 5.10615 3.3686 5.10028C3.38877 5.09426 3.4115 5.09437 3.43195 5.10102L3.21537 5.76667C3.45629 5.84506 3.70247 5.76096 3.85799 5.58384L3.332 5.12196ZM20.6247 5.1238C15.8532 -0.386892 8.10186 -0.386892 3.3304 5.1238L3.85959 5.582C8.35191 0.393706 15.6031 0.393706 20.0955 5.582L20.6247 5.1238ZM20.5231 5.10102C20.5436 5.09437 20.5663 5.09426 20.5865 5.10028C20.6061 5.10615 20.6178 5.11603 20.6231 5.12196L20.0971 5.58384C20.2526 5.76095 20.4988 5.84506 20.7397 5.76667L20.5231 5.10102ZM20.4855 5.12564C20.4846 5.12934 20.4841 5.12768 20.4883 5.12265C20.4926 5.11752 20.5035 5.10741 20.5231 5.10102L20.7397 5.76667C20.9725 5.69092 21.122 5.48988 21.1691 5.27612L20.4855 5.12564ZM20.4889 5.11813C20.4841 5.11268 20.4845 5.11054 20.4854 5.11408C20.4862 5.11749 20.4863 5.12187 20.4855 5.12564L21.1691 5.27612C21.2161 5.06282 21.1652 4.82729 21.0146 4.65596L20.4889 5.11813ZM11.9775 1.04434C15.0483 1.04434 18.1279 2.39135 20.4872 5.11615L21.0164 4.65794C18.5301 1.78648 15.2604 0.344336 11.9775 0.344336V1.04434ZM5.90518 6.95932C7.59095 5.01237 9.7895 4.05215 11.9775 4.05215V3.35215C9.57741 3.35215 7.18873 4.40752 5.37599 6.50111L5.90518 6.95932ZM5.90688 6.96881C5.90605 6.96504 5.90614 6.96066 5.90697 6.95724C5.90782 6.95371 5.90824 6.95585 5.90345 6.9613L5.37772 6.49913C5.2271 6.67046 5.1763 6.90599 5.22325 7.11929L5.90688 6.96881ZM5.86924 6.94419C5.88887 6.95058 5.89975 6.9607 5.90406 6.96583C5.90829 6.97085 5.9077 6.97251 5.90688 6.96881L5.22325 7.11929C5.2703 7.33306 5.41983 7.53409 5.65266 7.60984L5.86924 6.94419ZM5.7693 6.96513C5.77451 6.9592 5.78623 6.94932 5.80589 6.94345C5.82606 6.93744 5.84879 6.93754 5.86924 6.94419L5.65266 7.60984C5.89359 7.68823 6.13976 7.60413 6.29529 7.42701L5.7693 6.96513ZM18.1874 6.96697C14.763 3.01201 9.19211 3.01201 5.7677 6.96697L6.29689 7.42517C9.44216 3.79261 14.5129 3.79261 17.6582 7.42517L18.1874 6.96697ZM18.0858 6.94419C18.1063 6.93754 18.129 6.93744 18.1492 6.94345C18.1688 6.94932 18.1806 6.9592 18.1858 6.96513L17.6598 7.42701C17.8153 7.60413 18.0615 7.68823 18.3024 7.60984L18.0858 6.94419ZM18.0482 6.96881C18.0474 6.97251 18.0468 6.97085 18.051 6.96583C18.0553 6.9607 18.0662 6.95058 18.0858 6.94419L18.3024 7.60984C18.5352 7.53409 18.6848 7.33305 18.7318 7.1193L18.0482 6.96881ZM18.0516 6.96131C18.0468 6.95586 18.0473 6.95371 18.0481 6.95725C18.0489 6.96066 18.049 6.96504 18.0482 6.96881L18.7318 7.11929C18.7788 6.90599 18.728 6.67046 18.5773 6.49912L18.0516 6.96131ZM11.9775 4.05215C14.1656 4.05215 16.3641 5.01237 18.0499 6.95932L18.5791 6.50111C16.7663 4.40752 14.3777 3.35215 11.9775 3.35215V4.05215ZM11.9775 6.522C10.4949 6.522 9.02046 7.18217 7.90901 8.46581L8.43821 8.92401C9.42386 7.78566 10.7087 7.222 11.9775 7.222V6.522ZM16.046 8.46581C14.9346 7.18217 13.4601 6.522 11.9775 6.522V7.222C13.2463 7.222 14.5312 7.78566 15.5168 8.92401L16.046 8.46581ZM16.1913 9.0924C16.2424 8.87985 16.1957 8.64371 16.0493 8.46959L15.5136 8.92023C15.5093 8.91514 15.5099 8.91345 15.5108 8.91724C15.5116 8.92091 15.5115 8.92529 15.5107 8.9288L16.1913 9.0924ZM15.7507 9.57393C15.9861 9.5038 16.1401 9.30552 16.1913 9.0924L15.5107 8.9288C15.5099 8.93224 15.5095 8.93013 15.5142 8.92476C15.519 8.91926 15.5306 8.9091 15.5508 8.90308L15.7507 9.57393ZM15.1131 9.37581C15.2641 9.55551 15.5077 9.64635 15.7507 9.57393L15.5508 8.90308C15.5718 8.89683 15.5945 8.89744 15.6142 8.90384C15.6333 8.91007 15.6443 8.91991 15.649 8.92547L15.1131 9.37581ZM8.83862 9.37974C10.5825 7.36571 13.3726 7.36571 15.1164 9.37974L15.6456 8.92154C13.6226 6.58511 10.3324 6.58511 8.30942 8.92154L8.83862 9.37974ZM8.20433 9.57393C8.44739 9.64635 8.69096 9.55551 8.84197 9.37581L8.30607 8.92547C8.31074 8.91991 8.32175 8.91007 8.34087 8.90384C8.36052 8.89744 8.38324 8.89683 8.40422 8.90308L8.20433 9.57393ZM7.76373 9.0924C7.81496 9.30552 7.96896 9.5038 8.20433 9.57393L8.40422 8.90308C8.42441 8.9091 8.436 8.91926 8.44084 8.92476C8.44556 8.93013 8.44517 8.93224 8.44434 8.9288L7.76373 9.0924ZM7.90579 8.46959C7.7593 8.64371 7.71264 8.87985 7.76373 9.0924L8.44434 8.9288C8.4435 8.92529 8.44345 8.92091 8.44426 8.91724C8.4451 8.91345 8.44572 8.91514 8.44143 8.92023L7.90579 8.46959ZM11.7791 9.8393C11.7791 9.74671 11.8122 9.66848 11.8559 9.6174C11.8993 9.56682 11.9439 9.55128 11.9775 9.55128V8.85128C11.4339 8.85128 11.0791 9.35005 11.0791 9.8393H11.7791ZM11.8979 10.0881C11.835 10.0446 11.7791 9.9571 11.7791 9.8393H11.0791C11.0791 10.1821 11.2439 10.4871 11.5001 10.664L11.8979 10.0881ZM12.049 15.46V10.376H11.349V15.46H12.049ZM2.0891 15.81H11.699V15.11H2.0891V15.81ZM0.35 17.8804C0.35 16.6856 1.17804 15.81 2.0891 15.81V15.11C0.699226 15.11 -0.35 16.3982 -0.35 17.8804H0.35ZM0.35 20.6249V17.8804H-0.35V20.6249H0.35ZM2.0891 22.7054C1.17977 22.7054 0.35 21.8217 0.35 20.6249H-0.35C-0.35 22.1051 0.697491 23.4054 2.0891 23.4054V22.7054ZM21.866 22.7054H2.0891V23.4054H21.866V22.7054ZM23.6051 20.6249C23.6051 21.8217 22.7753 22.7054 21.866 22.7054V23.4054C23.2576 23.4054 24.3051 22.1051 24.3051 20.6249H23.6051ZM23.6051 17.8804V20.6249H24.3051V17.8804H23.6051ZM21.866 15.81C22.777 15.81 23.6051 16.6856 23.6051 17.8804H24.3051C24.3051 16.3982 23.2558 15.11 21.866 15.11V15.81ZM12.2561 15.81H21.866V15.11H12.2561V15.81ZM11.9061 10.376V15.46H12.6061V10.376H11.9061ZM12.1759 9.8393C12.1759 9.9571 12.12 10.0446 12.0572 10.0881L12.455 10.664C12.7111 10.4871 12.8759 10.1821 12.8759 9.8393H12.1759ZM11.9775 9.55128C12.0112 9.55128 12.0558 9.56682 12.0991 9.6174C12.1429 9.66848 12.1759 9.74671 12.1759 9.8393H12.8759C12.8759 9.35005 12.5212 8.85128 11.9775 8.85128V9.55128ZM21.8659 16.4581C22.4787 16.4581 23.048 17.0342 23.048 17.8804H23.748C23.748 16.7453 22.9562 15.7581 21.8659 15.7581V16.4581ZM2.0891 16.4581H21.8659V15.7581H2.0891V16.4581ZM0.907094 17.8804C0.907094 17.0342 1.47639 16.4581 2.0891 16.4581V15.7581C0.998863 15.7581 0.207094 16.7453 0.207094 17.8804H0.907094ZM0.907094 20.6249V17.8804H0.207094V20.6249H0.907094ZM2.0891 22.0573C1.47877 22.0573 0.907094 21.4738 0.907094 20.6249H0.207094C0.207094 21.7573 0.996484 22.7573 2.0891 22.7573V22.0573ZM21.8659 22.0573H2.0891V22.7573H21.8659V22.0573ZM23.048 20.6249C23.048 21.4738 22.4763 22.0573 21.8659 22.0573V22.7573C22.9586 22.7573 23.748 21.7573 23.748 20.6249H23.048ZM23.048 17.8804V20.6249H23.748V17.8804H23.048ZM3.03972 19.2577C3.03972 18.6435 3.47333 18.2203 3.89095 18.2203V17.5203C2.99546 17.5203 2.33972 18.355 2.33972 19.2577H3.03972ZM3.89095 20.2951C3.47332 20.2951 3.03972 19.8719 3.03972 19.2577H2.33972C2.33972 20.1604 2.99546 20.9951 3.89095 20.9951V20.2951ZM4.73348 19.2577C4.73348 19.8754 4.30556 20.2951 3.89095 20.2951V20.9951C4.78946 20.9951 5.43348 20.1569 5.43348 19.2577H4.73348ZM3.89095 18.2203C4.30556 18.2203 4.73348 18.64 4.73348 19.2577H5.43348C5.43348 18.3585 4.78947 17.5203 3.89095 17.5203V18.2203ZM3.89096 18.8785C4.00918 18.8785 4.17639 18.9957 4.17639 19.2577H4.87639C4.87639 18.7009 4.48156 18.1785 3.89096 18.1785V18.8785ZM3.60552 19.2577C3.60552 18.9957 3.77273 18.8785 3.89096 18.8785V18.1785C3.30036 18.1785 2.90552 18.7009 2.90552 19.2577H3.60552ZM3.89096 19.647C3.77851 19.647 3.60552 19.5264 3.60552 19.2577H2.90552C2.90552 19.8079 3.29458 20.347 3.89096 20.347V19.647ZM4.17639 19.2577C4.17639 19.5264 4.0034 19.647 3.89096 19.647V20.347C4.48734 20.347 4.87639 19.8079 4.87639 19.2577H4.17639Z" fill="white"/>
</svg>
